<svg xmlns="http://www.w3.org/2000/svg" width="14.003" height="12.049" viewBox="0 0 14.003 12.049">
  <g id="audio_mute" transform="translate(-1594.499 -842.773)">
    <path id="icons8_audio" d="M7.367,3,3.547,6.82H2.273A1.273,1.273,0,0,0,1,8.094V9.367a1.273,1.273,0,0,0,1.273,1.273H3.547l3.82,3.82Zm5.4.328-.9.9a6.356,6.356,0,0,1,0,9l.9.9A7.649,7.649,0,0,0,12.769,3.328Zm-1.8,1.8-.9.9a3.81,3.81,0,0,1,0,5.4l.9.9A5.1,5.1,0,0,0,10.969,5.129Zm-1.8,1.8-.9.9a1.263,1.263,0,0,1,0,1.8l.9.9A2.557,2.557,0,0,0,9.168,6.93Z" transform="translate(1593.499 840.362)" fill="#707070"/>
    <path id="Union_21" data-name="Union 21" d="M-1071.96,3584.364l-.731.706-.309-.321.731-.705-.71-.736.319-.309.71.736.731-.706.309.319-.731.706.71.735-.319.309Z" transform="translate(2674.547 -2740.227)" fill="#707070"/>
  </g>
</svg>
