<svg xmlns="http://www.w3.org/2000/svg" width="25.389" height="23.544" viewBox="0 0 25.389 23.544">
  <path id="like__bordered" d="M19.682,3a7.292,7.292,0,0,0-5.488,2.549A7.292,7.292,0,0,0,8.707,3,6.706,6.706,0,0,0,2,9.707C2,14.793,7.99,19.722,9.659,21.28c1.923,1.793,4.535,4.1,4.535,4.1s2.612-2.3,4.535-4.1c1.669-1.557,7.659-6.486,7.659-11.573A6.706,6.706,0,0,0,19.682,3Zm-2.06,15.987c-.216.2-.4.365-.556.507-.916.854-2,1.833-2.872,2.616-.873-.783-1.957-1.763-2.872-2.616-.154-.143-.341-.313-.556-.507-1.732-1.565-6.328-5.72-6.328-9.28A4.273,4.273,0,0,1,8.707,5.439a4.851,4.851,0,0,1,3.553,1.6L14.194,9.1l1.934-2.063a4.892,4.892,0,0,1,3.553-1.6A4.273,4.273,0,0,1,23.95,9.707C23.95,13.267,19.354,17.422,17.622,18.987Z" transform="translate(-1.5 -2.5)" fill="#001f0d" stroke="#c8d3cd" stroke-width="1"/>
</svg>
